<svg width="150" height="68" viewBox="0 0 150 68" fill="none" xmlns="http://www.w3.org/2000/svg">
<g clip-path="url(#clip0_1_8)">
<path d="M0 67H150" stroke="#FCBB08" stroke-width="2" stroke-linecap="square"/>
<path d="M50.3474 55.2856C47.8034 55.2856 45.5114 54.7336 43.4714 53.6296C41.4314 52.5016 39.8234 50.9536 38.6474 48.9856C37.4954 47.0176 36.9194 44.8216 36.9194 42.3976C36.9194 39.9736 37.4954 37.7776 38.6474 35.8096C39.8234 33.8416 41.4314 32.3056 43.4714 31.2016C45.5114 30.0736 47.8034 29.5096 50.3474 29.5096C52.8674 29.5096 55.1474 30.0736 57.1874 31.2016C59.2274 32.3056 60.8234 33.8416 61.9754 35.8096C63.1274 37.7536 63.7034 39.9496 63.7034 42.3976C63.7034 44.8456 63.1274 47.0536 61.9754 49.0216C60.8234 50.9656 59.2274 52.5016 57.1874 53.6296C55.1474 54.7336 52.8674 55.2856 50.3474 55.2856ZM50.3474 52.0816C52.1954 52.0816 53.8514 51.6616 55.3154 50.8216C56.8034 49.9816 57.9674 48.8296 58.8074 47.3656C59.6714 45.8776 60.1034 44.2216 60.1034 42.3976C60.1034 40.5736 59.6714 38.9296 58.8074 37.4656C57.9674 35.9776 56.8034 34.8136 55.3154 33.9736C53.8514 33.1336 52.1954 32.7136 50.3474 32.7136C48.4994 32.7136 46.8194 33.1336 45.3074 33.9736C43.8194 34.8136 42.6434 35.9776 41.7794 37.4656C40.9394 38.9296 40.5194 40.5736 40.5194 42.3976C40.5194 44.2216 40.9394 45.8776 41.7794 47.3656C42.6434 48.8296 43.8194 49.9816 45.3074 50.8216C46.8194 51.6616 48.4994 52.0816 50.3474 52.0816ZM92.5698 54.9976L92.5338 36.6376L83.4258 51.9376H81.7698L72.6618 36.7456V54.9976H69.2058V29.7976H72.1578L82.6698 47.5096L93.0378 29.7976H95.9898L96.0258 54.9976H92.5698Z" fill="white"/>
<path d="M111.678 19.6298L110.265 19.1976C110.069 19.1377 109.862 19.1941 109.729 19.3433C109.386 19.7309 109.009 20.0994 108.609 20.4387C105.645 22.9537 101.925 23.8125 97.85 22.9233C93.7957 22.0386 91.9322 19.692 89.353 16.4441C89.1686 16.2118 88.981 15.9756 88.7891 15.7357C88.7673 15.7083 88.7416 15.6724 88.7144 15.6344C88.6428 15.5343 88.5536 15.4098 88.4281 15.287C88.2576 15.1201 88.0719 14.9646 87.8761 14.825C87.4716 14.5364 87.2018 14.082 87.1361 13.5784L86.7024 10.2566C86.6836 10.1126 86.6098 9.97958 86.4971 9.88658C86.3846 9.79352 86.2423 9.74818 86.1017 9.76061L83.9617 9.94883C83.6692 9.97446 83.4637 10.2384 83.5027 10.5381L83.9187 13.7244C83.9642 14.0732 83.8514 14.428 83.6092 14.6977C83.2393 15.1095 83.0509 15.6178 83.0642 16.1673C83.2326 23.1161 87.8916 28.2594 95.5271 29.9255C98.8224 30.6445 102.327 30.2145 105.394 28.7146C106.012 28.4127 106.596 28.0749 107.144 27.7029C107.909 27.1844 108.603 26.5995 109.222 25.9536C110.326 24.7991 111.13 23.5062 111.609 22.111C111.814 21.5124 111.971 20.8917 112.074 20.266C112.12 19.989 111.948 19.7123 111.678 19.6298ZM84.6332 10.9875L85.7136 10.8925L86.0011 13.0943L85.5648 13.105L84.9117 13.121L84.6332 10.9875ZM106.531 26.7872C103.561 28.8018 99.5296 29.6956 95.7032 28.8607C88.613 27.3135 84.2877 22.5775 84.1329 16.1918C84.1246 15.8488 84.2808 15.6009 84.4132 15.4535C84.728 15.1029 84.9232 14.6684 84.9802 14.2102L86.1886 14.1806C86.3811 14.7938 86.7672 15.3339 87.2911 15.7076C87.4387 15.8129 87.5786 15.9299 87.7067 16.0553C87.7595 16.107 87.8063 16.1726 87.8607 16.2485C87.8956 16.2973 87.9317 16.3477 87.9729 16.3992C88.1639 16.6383 88.3508 16.8735 88.5345 17.1049C91.1583 20.409 93.2307 23.0186 97.6737 23.9881C99.9004 24.474 102.05 24.4727 104.061 23.9844C105.886 23.5414 107.566 22.7073 109.057 21.5031L109.093 21.5206L109.285 21.6142C108.515 22.8093 107.534 23.8047 106.397 24.5753C103.901 26.2686 100.662 26.879 97.3163 26.149C92.1068 25.0123 88.3962 22.2086 86.8678 18.2544C86.758 17.9702 86.4468 17.8198 86.1728 17.9184C85.8987 18.0169 85.7657 18.3273 85.8755 18.6116C87.548 22.9387 91.5485 25.9938 97.1401 27.2138C99.8685 27.8091 102.578 27.5923 104.976 26.5867C105.705 26.2813 106.39 25.9101 107.027 25.478C108.334 24.5915 109.435 23.4491 110.278 22.0992L110.424 22.1707C109.669 24.0172 108.285 25.5976 106.531 26.7872ZM110.771 21.1544L110.552 21.0477L109.921 20.7396C110.057 20.6079 110.189 20.4733 110.318 20.3361L110.927 20.5226C110.882 20.7348 110.829 20.9456 110.771 21.1544Z" fill="white"/>
</g>
<defs>
<clipPath id="clip0_1_8">
<rect width="150" height="68" fill="white"/>
</clipPath>
</defs>
</svg>
